<?xml version="1.0" encoding="UTF-8"?>
<svg xmlns="http://www.w3.org/2000/svg" viewBox="0 0 2190 2510">
  <path d="M 884.0,347.0 L 767.0,475.0 L 755.0,491.0 L 733.0,511.0 L 727.0,521.0 L 684.0,564.0 L 679.0,573.0 L 637.0,617.0 L 627.0,631.0 L 623.0,643.0 L 623.0,700.0 L 618.0,704.0 L 605.0,702.0 L 604.0,663.0 L 591.0,648.0 L 579.0,648.0 L 568.0,655.0 L 553.0,673.0 L 541.0,682.0 L 538.0,689.0 L 507.0,723.0 L 487.0,742.0 L 485.0,747.0 L 456.0,777.0 L 427.0,812.0 L 381.0,861.0 L 368.0,872.0 L 364.0,881.0 L 345.0,903.0 L 344.0,1045.0 L 346.0,1089.0 L 348.0,1532.0 L 350.0,1553.0 L 350.0,1689.0 L 352.0,1694.0 L 353.0,1773.0 L 351.0,1798.0 L 352.0,1837.0 L 354.0,1843.0 L 354.0,1985.0 L 356.0,2000.0 L 355.0,2120.0 L 356.0,2176.0 L 358.0,2183.0 L 373.0,2203.0 L 395.0,2214.0 L 460.0,2216.0 L 522.0,2223.0 L 529.0,2222.0 L 550.0,2210.0 L 562.0,2196.0 L 566.0,2187.0 L 575.0,2176.0 L 585.0,2154.0 L 594.0,2144.0 L 604.0,2125.0 L 623.0,2099.0 L 640.0,2068.0 L 638.0,2099.0 L 640.0,2106.0 L 639.0,2138.0 L 642.0,2147.0 L 642.0,2234.0 L 648.0,2251.0 L 662.0,2265.0 L 674.0,2273.0 L 707.0,2275.0 L 742.0,2274.0 L 771.0,2277.0 L 804.0,2276.0 L 870.0,2281.0 L 893.0,2280.0 L 912.0,2273.0 L 924.0,2261.0 L 940.0,2230.0 L 950.0,2202.0 L 961.0,2212.0 L 981.0,2222.0 L 1112.0,2223.0 L 1122.0,2225.0 L 1177.0,2224.0 L 1198.0,2204.0 L 1206.0,2178.0 L 1213.0,2167.0 L 1214.0,2157.0 L 1223.0,2144.0 L 1225.0,2132.0 L 1243.0,2095.0 L 1245.0,2083.0 L 1253.0,2073.0 L 1255.0,2061.0 L 1263.0,2047.0 L 1265.0,2035.0 L 1273.0,2024.0 L 1276.0,2010.0 L 1304.0,1948.0 L 1306.0,1936.0 L 1314.0,1926.0 L 1316.0,1913.0 L 1324.0,1902.0 L 1327.0,1888.0 L 1336.0,1873.0 L 1339.0,1859.0 L 1353.0,1831.0 L 1355.0,1819.0 L 1365.0,1795.0 L 1366.0,1815.0 L 1374.0,1838.0 L 1376.0,1863.0 L 1384.0,1888.0 L 1388.0,1922.0 L 1394.0,1937.0 L 1397.0,1962.0 L 1404.0,1986.0 L 1407.0,2014.0 L 1414.0,2037.0 L 1427.0,2112.0 L 1434.0,2137.0 L 1438.0,2167.0 L 1443.0,2179.0 L 1447.0,2213.0 L 1456.0,2244.0 L 1457.0,2266.0 L 1465.0,2287.0 L 1468.0,2316.0 L 1478.0,2336.0 L 1503.0,2354.0 L 1521.0,2354.0 L 1546.0,2350.0 L 1556.0,2346.0 L 1598.0,2342.0 L 1634.0,2334.0 L 1662.0,2333.0 L 1673.0,2327.0 L 1686.0,2328.0 L 1703.0,2322.0 L 1713.0,2314.0 L 1729.0,2291.0 L 1752.0,2264.0 L 1763.0,2245.0 L 1801.0,2198.0 L 1825.0,2163.0 L 1832.0,2157.0 L 1845.0,2135.0 L 1862.0,2115.0 L 1875.0,2094.0 L 1896.0,2072.0 L 1918.0,2038.0 L 1930.0,2026.0 L 1935.0,2014.0 L 1942.0,2008.0 L 1969.0,1970.0 L 1985.0,1952.0 L 1994.0,1935.0 L 1993.0,1908.0 L 1986.0,1888.0 L 1984.0,1869.0 L 1966.0,1789.0 L 1963.0,1766.0 L 1955.0,1739.0 L 1952.0,1715.0 L 1945.0,1693.0 L 1943.0,1671.0 L 1937.0,1655.0 L 1931.0,1615.0 L 1925.0,1603.0 L 1923.0,1574.0 L 1915.0,1553.0 L 1913.0,1530.0 L 1906.0,1510.0 L 1903.0,1484.0 L 1895.0,1454.0 L 1893.0,1433.0 L 1886.0,1413.0 L 1880.0,1375.0 L 1874.0,1361.0 L 1873.0,1340.0 L 1866.0,1320.0 L 1863.0,1293.0 L 1857.0,1280.0 L 1853.0,1247.0 L 1844.0,1219.0 L 1843.0,1199.0 L 1837.0,1182.0 L 1834.0,1157.0 L 1825.0,1127.0 L 1824.0,1110.0 L 1818.0,1089.0 L 1813.0,1056.0 L 1807.0,1043.0 L 1802.0,1006.0 L 1795.0,984.0 L 1792.0,959.0 L 1786.0,943.0 L 1783.0,916.0 L 1775.0,891.0 L 1773.0,868.0 L 1766.0,849.0 L 1762.0,818.0 L 1756.0,801.0 L 1753.0,772.0 L 1746.0,753.0 L 1744.0,734.0 L 1733.0,687.0 L 1729.0,682.0 L 1719.0,677.0 L 1701.0,676.0 L 1663.0,715.0 L 1650.0,717.0 L 1639.0,723.0 L 1610.0,727.0 L 1590.0,735.0 L 1570.0,737.0 L 1550.0,745.0 L 1527.0,747.0 L 1518.0,753.0 L 1514.0,752.0 L 1512.0,737.0 L 1503.0,723.0 L 1494.0,716.0 L 1482.0,716.0 L 1438.0,750.0 L 1394.0,789.0 L 1393.0,746.0 L 1397.0,546.0 L 1395.0,536.0 L 1389.0,529.0 L 1378.0,525.0 L 1364.0,525.0 L 1345.0,541.0 L 1342.0,549.0 L 1337.0,554.0 L 1326.0,559.0 L 1302.0,558.0 L 1250.0,563.0 L 1196.0,565.0 L 1190.0,558.0 L 1185.0,537.0 L 1172.0,526.0 L 1163.0,526.0 L 1156.0,532.0 L 1153.0,531.0 L 1154.0,433.0 L 1157.0,410.0 L 1155.0,360.0 L 1140.0,345.0 L 1127.0,343.0 L 1114.0,347.0 L 1092.0,375.0 L 1084.0,382.0 L 1077.0,384.0 L 990.0,389.0 L 922.0,397.0 L 917.0,396.0 L 915.0,392.0 L 917.0,380.0 L 914.0,356.0 L 907.0,349.0 L 899.0,346.0 Z M 623.0,838.0 L 626.0,844.0 L 626.0,1088.0 L 628.0,1114.0 L 628.0,1227.0 L 631.0,1255.0 L 629.0,1348.0 L 632.0,1362.0 L 632.0,1486.0 L 634.0,1502.0 L 634.0,1612.0 L 636.0,1626.0 L 638.0,2002.0 L 634.0,2016.0 L 620.0,2034.0 L 604.0,2063.0 L 597.0,2070.0 L 594.0,2081.0 L 575.0,2105.0 L 548.0,2152.0 L 549.0,2127.0 L 547.0,2115.0 L 549.0,2100.0 L 546.0,2087.0 L 546.0,1973.0 L 544.0,1960.0 L 543.0,1655.0 L 541.0,1643.0 L 541.0,1555.0 L 538.0,1529.0 L 538.0,1450.0 L 536.0,1441.0 L 537.0,1362.0 L 535.0,1347.0 L 533.0,1102.0 L 528.0,964.0 L 529.0,949.0 L 544.0,927.0 L 613.0,852.0 Z M 1612.0,765.0 L 1604.0,774.0 L 1596.0,777.0 L 1567.0,808.0 L 1479.0,890.0 L 1444.0,926.0 L 1424.0,941.0 L 1415.0,945.0 L 1390.0,948.0 L 1381.0,953.0 L 1370.0,952.0 L 1356.0,956.0 L 1335.0,956.0 L 1302.0,961.0 L 1307.0,954.0 L 1316.0,950.0 L 1356.0,914.0 L 1365.0,909.0 L 1392.0,884.0 L 1409.0,872.0 L 1427.0,854.0 L 1449.0,836.0 L 1457.0,832.0 L 1477.0,812.0 L 1508.0,788.0 L 1547.0,780.0 L 1558.0,775.0 L 1585.0,771.0 L 1604.0,764.0 Z M 1611.0,764.0 L 1612.0,763.0 L 1613.0,764.0 L 1612.0,765.0 Z M 1478.0,762.0 L 1481.0,764.0 L 1472.0,774.0 L 1452.0,788.0 L 1413.0,825.0 L 1380.0,849.0 L 1364.0,865.0 L 1300.0,917.0 L 1291.0,927.0 L 1260.0,950.0 L 1256.0,957.0 L 1256.0,975.0 L 1271.0,991.0 L 1289.0,994.0 L 1353.0,990.0 L 1380.0,984.0 L 1409.0,981.0 L 1422.0,974.0 L 1428.0,977.0 L 1429.0,991.0 L 1436.0,1011.0 L 1436.0,1027.0 L 1442.0,1042.0 L 1443.0,1058.0 L 1454.0,1108.0 L 1458.0,1140.0 L 1465.0,1161.0 L 1467.0,1186.0 L 1476.0,1217.0 L 1476.0,1232.0 L 1483.0,1254.0 L 1487.0,1289.0 L 1495.0,1316.0 L 1499.0,1349.0 L 1505.0,1368.0 L 1507.0,1390.0 L 1514.0,1418.0 L 1518.0,1447.0 L 1523.0,1457.0 L 1523.0,1470.0 L 1534.0,1519.0 L 1537.0,1548.0 L 1544.0,1567.0 L 1548.0,1602.0 L 1555.0,1624.0 L 1557.0,1649.0 L 1565.0,1677.0 L 1569.0,1710.0 L 1575.0,1728.0 L 1577.0,1752.0 L 1585.0,1779.0 L 1588.0,1808.0 L 1594.0,1827.0 L 1598.0,1858.0 L 1605.0,1879.0 L 1607.0,1904.0 L 1614.0,1923.0 L 1616.0,1953.0 L 1624.0,1979.0 L 1628.0,2014.0 L 1635.0,2034.0 L 1637.0,2060.0 L 1645.0,2083.0 L 1646.0,2107.0 L 1654.0,2131.0 L 1658.0,2169.0 L 1663.0,2180.0 L 1667.0,2215.0 L 1676.0,2249.0 L 1678.0,2272.0 L 1685.0,2292.0 L 1679.0,2296.0 L 1652.0,2297.0 L 1624.0,2304.0 L 1580.0,2308.0 L 1555.0,2315.0 L 1524.0,2317.0 L 1516.0,2320.0 L 1506.0,2315.0 L 1503.0,2311.0 L 1502.0,2297.0 L 1496.0,2281.0 L 1495.0,2265.0 L 1487.0,2241.0 L 1482.0,2200.0 L 1476.0,2183.0 L 1473.0,2156.0 L 1467.0,2138.0 L 1461.0,2099.0 L 1455.0,2084.0 L 1455.0,2068.0 L 1445.0,2029.0 L 1443.0,2005.0 L 1435.0,1981.0 L 1433.0,1961.0 L 1424.0,1925.0 L 1423.0,1907.0 L 1416.0,1891.0 L 1413.0,1856.0 L 1406.0,1840.0 L 1402.0,1804.0 L 1394.0,1776.0 L 1393.0,1757.0 L 1385.0,1734.0 L 1380.0,1696.0 L 1375.0,1684.0 L 1374.0,1666.0 L 1364.0,1627.0 L 1363.0,1610.0 L 1358.0,1599.0 L 1353.0,1562.0 L 1347.0,1545.0 L 1342.0,1510.0 L 1336.0,1494.0 L 1334.0,1469.0 L 1326.0,1443.0 L 1323.0,1415.0 L 1314.0,1380.0 L 1313.0,1363.0 L 1306.0,1345.0 L 1304.0,1319.0 L 1295.0,1289.0 L 1293.0,1267.0 L 1285.0,1238.0 L 1283.0,1215.0 L 1275.0,1189.0 L 1274.0,1168.0 L 1266.0,1145.0 L 1263.0,1115.0 L 1256.0,1097.0 L 1253.0,1068.0 L 1246.0,1043.0 L 1243.0,1015.0 L 1238.0,1003.0 L 1233.0,967.0 L 1237.0,963.0 L 1242.0,961.0 L 1273.0,934.0 L 1280.0,931.0 L 1291.0,918.0 L 1309.0,905.0 L 1318.0,895.0 L 1327.0,891.0 L 1365.0,856.0 L 1407.0,824.0 L 1434.0,798.0 L 1468.0,773.0 Z M 625.0,737.0 L 625.0,780.0 L 623.0,786.0 L 590.0,823.0 L 586.0,831.0 L 575.0,840.0 L 555.0,865.0 L 544.0,874.0 L 504.0,923.0 L 500.0,925.0 L 457.0,925.0 L 442.0,921.0 L 428.0,921.0 L 444.0,904.0 L 446.0,898.0 L 470.0,875.0 L 475.0,866.0 L 532.0,807.0 L 538.0,797.0 L 595.0,734.0 L 623.0,735.0 Z M 1705.0,723.0 L 1708.0,728.0 L 1707.0,738.0 L 1715.0,757.0 L 1716.0,774.0 L 1727.0,819.0 L 1727.0,830.0 L 1734.0,848.0 L 1737.0,874.0 L 1744.0,894.0 L 1748.0,927.0 L 1753.0,940.0 L 1758.0,972.0 L 1765.0,996.0 L 1768.0,1024.0 L 1775.0,1044.0 L 1777.0,1066.0 L 1785.0,1090.0 L 1790.0,1125.0 L 1795.0,1135.0 L 1796.0,1154.0 L 1803.0,1174.0 L 1807.0,1206.0 L 1813.0,1218.0 L 1815.0,1240.0 L 1825.0,1280.0 L 1828.0,1305.0 L 1834.0,1319.0 L 1837.0,1346.0 L 1844.0,1367.0 L 1846.0,1390.0 L 1853.0,1411.0 L 1858.0,1446.0 L 1863.0,1459.0 L 1867.0,1487.0 L 1874.0,1510.0 L 1877.0,1539.0 L 1885.0,1558.0 L 1888.0,1589.0 L 1895.0,1609.0 L 1896.0,1626.0 L 1903.0,1649.0 L 1908.0,1683.0 L 1914.0,1701.0 L 1918.0,1731.0 L 1925.0,1752.0 L 1927.0,1774.0 L 1935.0,1798.0 L 1937.0,1819.0 L 1943.0,1837.0 L 1947.0,1865.0 L 1953.0,1883.0 L 1959.0,1918.0 L 1959.0,1926.0 L 1956.0,1933.0 L 1907.0,1994.0 L 1904.0,2002.0 L 1878.0,2034.0 L 1874.0,2043.0 L 1849.0,2072.0 L 1835.0,2095.0 L 1828.0,2101.0 L 1815.0,2122.0 L 1807.0,2130.0 L 1805.0,2136.0 L 1789.0,2155.0 L 1784.0,2165.0 L 1776.0,2171.0 L 1755.0,2202.0 L 1730.0,2230.0 L 1725.0,2241.0 L 1713.0,2257.0 L 1707.0,2241.0 L 1702.0,2203.0 L 1695.0,2177.0 L 1693.0,2155.0 L 1685.0,2129.0 L 1681.0,2094.0 L 1676.0,2082.0 L 1672.0,2047.0 L 1666.0,2028.0 L 1661.0,1994.0 L 1655.0,1977.0 L 1653.0,1952.0 L 1645.0,1922.0 L 1645.0,1908.0 L 1636.0,1876.0 L 1632.0,1842.0 L 1625.0,1823.0 L 1624.0,1802.0 L 1614.0,1764.0 L 1613.0,1745.0 L 1606.0,1723.0 L 1602.0,1688.0 L 1595.0,1663.0 L 1594.0,1646.0 L 1587.0,1624.0 L 1583.0,1587.0 L 1576.0,1571.0 L 1573.0,1540.0 L 1567.0,1523.0 L 1563.0,1488.0 L 1555.0,1459.0 L 1552.0,1431.0 L 1546.0,1414.0 L 1544.0,1393.0 L 1536.0,1364.0 L 1533.0,1334.0 L 1526.0,1312.0 L 1522.0,1275.0 L 1516.0,1257.0 L 1514.0,1237.0 L 1505.0,1202.0 L 1501.0,1167.0 L 1495.0,1146.0 L 1494.0,1131.0 L 1489.0,1119.0 L 1483.0,1077.0 L 1474.0,1045.0 L 1473.0,1024.0 L 1468.0,1013.0 L 1468.0,1004.0 L 1464.0,993.0 L 1464.0,978.0 L 1459.0,964.0 L 1460.0,958.0 L 1471.0,946.0 L 1496.0,924.0 L 1507.0,911.0 L 1515.0,906.0 L 1587.0,834.0 L 1598.0,828.0 L 1608.0,814.0 L 1653.0,774.0 Z M 567.0,709.0 L 566.0,715.0 L 556.0,725.0 L 554.0,730.0 L 417.0,880.0 L 414.0,886.0 L 383.0,919.0 L 381.0,925.0 L 383.0,942.0 L 388.0,947.0 L 402.0,953.0 L 447.0,955.0 L 453.0,957.0 L 463.0,955.0 L 493.0,957.0 L 496.0,962.0 L 498.0,1151.0 L 501.0,1202.0 L 500.0,1243.0 L 503.0,1273.0 L 503.0,1347.0 L 505.0,1368.0 L 507.0,1747.0 L 510.0,1762.0 L 510.0,1863.0 L 513.0,1886.0 L 512.0,1967.0 L 514.0,1978.0 L 514.0,2089.0 L 516.0,2097.0 L 515.0,2185.0 L 511.0,2188.0 L 507.0,2186.0 L 433.0,2183.0 L 397.0,2177.0 L 391.0,2170.0 L 388.0,2141.0 L 386.0,1842.0 L 384.0,1833.0 L 383.0,1393.0 L 380.0,1365.0 L 381.0,1245.0 L 379.0,1224.0 L 378.0,1081.0 L 376.0,1066.0 L 377.0,943.0 L 375.0,921.0 L 395.0,895.0 L 464.0,822.0 L 492.0,788.0 L 542.0,736.0 L 558.0,716.0 Z M 567.0,709.0 L 568.0,708.0 L 569.0,709.0 L 568.0,710.0 Z M 568.0,708.0 L 569.0,707.0 L 570.0,708.0 L 569.0,709.0 Z M 570.0,705.0 L 571.0,704.0 L 572.0,705.0 L 571.0,706.0 Z M 1117.0,621.0 L 1119.0,623.0 L 1113.0,632.0 L 1068.0,682.0 L 1063.0,692.0 L 1045.0,711.0 L 1024.0,740.0 L 1013.0,750.0 L 1006.0,761.0 L 996.0,770.0 L 975.0,796.0 L 973.0,814.0 L 983.0,824.0 L 1000.0,826.0 L 1019.0,833.0 L 1101.0,839.0 L 1144.0,836.0 L 1148.0,841.0 L 1146.0,856.0 L 1147.0,879.0 L 1140.0,1120.0 L 1138.0,1131.0 L 1137.0,1956.0 L 1138.0,2105.0 L 1141.0,2135.0 L 1141.0,2173.0 L 1139.0,2178.0 L 1141.0,2191.0 L 1138.0,2194.0 L 1119.0,2191.0 L 1083.0,2192.0 L 1073.0,2189.0 L 1030.0,2189.0 L 983.0,2185.0 L 976.0,2178.0 L 974.0,2139.0 L 974.0,1839.0 L 971.0,1807.0 L 971.0,1691.0 L 969.0,1686.0 L 969.0,1564.0 L 967.0,1556.0 L 967.0,1440.0 L 965.0,1426.0 L 963.0,1049.0 L 961.0,1041.0 L 962.0,925.0 L 959.0,895.0 L 960.0,799.0 L 965.0,789.0 L 1018.0,733.0 L 1074.0,667.0 Z M 1118.0,621.0 L 1119.0,620.0 L 1120.0,621.0 L 1119.0,622.0 Z M 1119.0,620.0 L 1120.0,619.0 L 1121.0,620.0 L 1120.0,621.0 Z M 1120.0,619.0 L 1121.0,618.0 L 1122.0,619.0 L 1121.0,620.0 Z M 1121.0,618.0 L 1122.0,617.0 L 1123.0,618.0 L 1122.0,619.0 Z M 1123.0,615.0 L 1124.0,614.0 L 1125.0,615.0 L 1124.0,616.0 Z M 1124.0,614.0 L 1125.0,613.0 L 1126.0,614.0 L 1125.0,615.0 Z M 1125.0,613.0 L 1126.0,612.0 L 1127.0,613.0 L 1126.0,614.0 Z M 1126.0,612.0 L 1127.0,611.0 L 1128.0,612.0 L 1127.0,613.0 Z M 1316.0,593.0 L 1305.0,603.0 L 1301.0,611.0 L 1287.0,626.0 L 1274.0,646.0 L 1243.0,684.0 L 1225.0,712.0 L 1206.0,733.0 L 1182.0,768.0 L 1154.0,803.0 L 1147.0,805.0 L 1082.0,806.0 L 1049.0,803.0 L 1021.0,796.0 L 1076.0,727.0 L 1131.0,664.0 L 1156.0,631.0 L 1170.0,618.0 L 1187.0,597.0 L 1213.0,597.0 L 1224.0,594.0 L 1303.0,594.0 L 1312.0,591.0 Z M 1364.0,583.0 L 1364.0,655.0 L 1362.0,667.0 L 1362.0,729.0 L 1359.0,743.0 L 1359.0,813.0 L 1349.0,827.0 L 1330.0,840.0 L 1317.0,854.0 L 1287.0,877.0 L 1260.0,903.0 L 1253.0,906.0 L 1233.0,925.0 L 1213.0,938.0 L 1206.0,946.0 L 1199.0,966.0 L 1199.0,979.0 L 1205.0,1000.0 L 1207.0,1024.0 L 1215.0,1051.0 L 1217.0,1074.0 L 1224.0,1096.0 L 1227.0,1124.0 L 1235.0,1150.0 L 1237.0,1172.0 L 1245.0,1199.0 L 1247.0,1221.0 L 1254.0,1244.0 L 1258.0,1275.0 L 1265.0,1297.0 L 1268.0,1325.0 L 1274.0,1343.0 L 1278.0,1375.0 L 1284.0,1392.0 L 1286.0,1415.0 L 1294.0,1443.0 L 1297.0,1470.0 L 1304.0,1489.0 L 1317.0,1569.0 L 1325.0,1597.0 L 1326.0,1618.0 L 1334.0,1639.0 L 1336.0,1661.0 L 1353.0,1737.0 L 1347.0,1749.0 L 1345.0,1761.0 L 1337.0,1772.0 L 1335.0,1787.0 L 1328.0,1795.0 L 1324.0,1810.0 L 1317.0,1820.0 L 1305.0,1857.0 L 1288.0,1891.0 L 1285.0,1905.0 L 1277.0,1918.0 L 1244.0,2002.0 L 1237.0,2012.0 L 1235.0,2026.0 L 1228.0,2036.0 L 1224.0,2051.0 L 1215.0,2067.0 L 1213.0,2081.0 L 1208.0,2087.0 L 1195.0,2114.0 L 1183.0,2151.0 L 1174.0,2169.0 L 1174.0,2116.0 L 1172.0,2107.0 L 1174.0,2075.0 L 1172.0,2054.0 L 1173.0,1979.0 L 1171.0,1949.0 L 1171.0,1269.0 L 1173.0,1238.0 L 1175.0,955.0 L 1179.0,916.0 L 1178.0,893.0 L 1181.0,884.0 L 1183.0,828.0 L 1187.0,816.0 L 1206.0,794.0 L 1243.0,744.0 L 1248.0,734.0 L 1256.0,727.0 L 1294.0,678.0 L 1317.0,644.0 L 1328.0,635.0 L 1336.0,621.0 L 1355.0,600.0 Z M 1158.0,574.0 L 1158.0,579.0 L 1128.0,612.0 L 1127.0,610.0 Z M 1069.0,417.0 L 1053.0,433.0 L 1049.0,442.0 L 1038.0,454.0 L 1033.0,464.0 L 1026.0,470.0 L 993.0,516.0 L 976.0,535.0 L 954.0,569.0 L 937.0,588.0 L 935.0,594.0 L 925.0,603.0 L 914.0,622.0 L 905.0,630.0 L 883.0,659.0 L 862.0,664.0 L 834.0,664.0 L 818.0,667.0 L 729.0,666.0 L 719.0,662.0 L 719.0,658.0 L 781.0,586.0 L 793.0,567.0 L 823.0,537.0 L 826.0,528.0 L 854.0,498.0 L 908.0,432.0 L 970.0,424.0 L 1003.0,424.0 Z M 1123.0,400.0 L 1125.0,406.0 L 1121.0,428.0 L 1122.0,477.0 L 1120.0,484.0 L 1119.0,565.0 L 1115.0,574.0 L 1090.0,598.0 L 1056.0,637.0 L 1054.0,642.0 L 959.0,742.0 L 937.0,768.0 L 929.0,780.0 L 925.0,792.0 L 927.0,811.0 L 927.0,1048.0 L 929.0,1054.0 L 931.0,1297.0 L 933.0,1311.0 L 933.0,1425.0 L 935.0,1440.0 L 938.0,1945.0 L 940.0,1960.0 L 940.0,2063.0 L 944.0,2126.0 L 942.0,2137.0 L 934.0,2152.0 L 933.0,2161.0 L 917.0,2189.0 L 914.0,2203.0 L 908.0,2212.0 L 906.0,2224.0 L 902.0,2230.0 L 900.0,2224.0 L 902.0,2210.0 L 901.0,2127.0 L 898.0,2105.0 L 899.0,1964.0 L 896.0,1942.0 L 896.0,1198.0 L 899.0,1174.0 L 898.0,1057.0 L 900.0,1050.0 L 900.0,973.0 L 903.0,935.0 L 904.0,790.0 L 906.0,784.0 L 905.0,761.0 L 908.0,750.0 L 909.0,711.0 L 914.0,697.0 L 912.0,680.0 L 944.0,635.0 L 963.0,614.0 L 965.0,607.0 L 972.0,601.0 L 975.0,594.0 L 983.0,587.0 L 986.0,580.0 L 1031.0,524.0 L 1037.0,512.0 L 1083.0,456.0 L 1106.0,423.0 L 1116.0,414.0 Z M 883.0,397.0 L 886.0,402.0 L 884.0,407.0 L 848.0,451.0 L 838.0,460.0 L 835.0,466.0 L 826.0,473.0 L 824.0,480.0 L 810.0,494.0 L 807.0,501.0 L 787.0,520.0 L 784.0,529.0 L 729.0,591.0 L 727.0,596.0 L 718.0,605.0 L 716.0,611.0 L 697.0,630.0 L 669.0,666.0 L 669.0,676.0 L 679.0,687.0 L 700.0,695.0 L 723.0,695.0 L 776.0,703.0 L 796.0,700.0 L 824.0,700.0 L 836.0,696.0 L 862.0,696.0 L 868.0,694.0 L 875.0,694.0 L 877.0,696.0 L 876.0,745.0 L 872.0,793.0 L 873.0,807.0 L 870.0,834.0 L 871.0,883.0 L 867.0,894.0 L 866.0,1189.0 L 864.0,1209.0 L 864.0,1930.0 L 866.0,1950.0 L 866.0,2215.0 L 869.0,2240.0 L 866.0,2245.0 L 861.0,2247.0 L 851.0,2245.0 L 715.0,2243.0 L 704.0,2239.0 L 689.0,2241.0 L 676.0,2230.0 L 674.0,2223.0 L 674.0,2011.0 L 672.0,2005.0 L 672.0,1880.0 L 670.0,1866.0 L 668.0,1622.0 L 666.0,1611.0 L 666.0,1494.0 L 664.0,1474.0 L 663.0,1112.0 L 660.0,1084.0 L 661.0,975.0 L 658.0,964.0 L 658.0,894.0 L 660.0,882.0 L 656.0,832.0 L 657.0,720.0 L 655.0,714.0 L 654.0,656.0 L 657.0,648.0 L 689.0,614.0 L 692.0,608.0 L 724.0,572.0 L 742.0,556.0 L 745.0,549.0 L 771.0,524.0 L 774.0,516.0 L 793.0,499.0 L 795.0,494.0 L 848.0,440.0 L 877.0,407.0 Z" fill="#000000" fill-rule="evenodd"/>
</svg>
